<svg xmlns="http://www.w3.org/2000/svg" viewBox="0 0 497.94 573.02"><defs><style>.a{fill:#efd0bf;}.b{fill:#29abe2;}.c,.l{fill:none;}.c{stroke:#000;stroke-width:7px;}.c,.g,.h,.l{stroke-miterlimit:10;}.d{fill:#ffdcc6;}.e{fill:#0071bc;}.f{fill:#2e3192;}.g,.h,.j{fill:#fff;}.g,.h{stroke:#2e3192;}.g{stroke-width:5.67px;}.h{stroke-width:5.62px;}.i{fill:#333;}.k{fill:#c1272d;}.l{stroke:#c1272d;stroke-width:27.79px;}</style></defs><path class="a" d="M710.63,420.12s-4.85-10.68-14.53-8,6.45,28,6.45,32,4.57,16.31,10.36,10.16S710.63,420.12,710.63,420.12Z" transform="translate(-644 -292.61)"/><path class="a" d="M866,419.41s4.4-11.19,13.21-8.39-5.87,29.37-5.87,33.56-4.16,17.1-9.42,10.65S866,419.41,866,419.41Z" transform="translate(-644 -292.61)"/><path class="b" d="M749,582s-63,14-80,29-25,50-25,75,16,81,16,81,18.09,3.57,45.43,6.82C707.21,774,710,756,710,756s4,18.8,5.65,19c48,5.07,117.62,8,170.73-8L889,753l7.32,10.39L936,749s17-98-12-129-72-33-72-33Z" transform="translate(-644 -292.61)"/><path class="c" d="M738,705s-42-67,7-123c0,0,129.5-87.5,106.5,136.5" transform="translate(-644 -292.61)"/><path class="a" d="M746,516.84S764,550,749,582c0,0,22,20,47,21s36-20,36-20-18.69-30.32-1.85-66.16Z" transform="translate(-644 -292.61)"/><path class="d" d="M706.5,375.5s4,88,8,105,54,59,73,59,61.1-37,69-46c10.43-11.91,14-79,12-118C868.5,375.5,807.5,308.5,706.5,375.5Z" transform="translate(-644 -292.61)"/><path d="M710,439s28-41,36-55a64.73,64.73,0,0,1,19-21s9,33,23,36,39,15,39,15,33.67,17.08,40.84,21.54c0,0,20.72-82.28-27.84-102.54C786.8,310.81,674,308,710,439Z" transform="translate(-644 -292.61)"/><path class="e" d="M716,775s-19-57-19-92c0,0,23.76,93.07,41.38,94Z" transform="translate(-644 -292.61)"/><path d="M740.31,829.5a43,43,0,0,1-21.21,6,23.21,23.21,0,0,1-19.94-11,39,39,0,0,1-4.63-10.73,79.49,79.49,0,0,1-2.28-11.12,105.46,105.46,0,0,1-1-11.22c-.16-3.74-.13-7.49.05-11.23a137.84,137.84,0,0,1,2.85-22.31A114.54,114.54,0,0,1,701,736.25a86,86,0,0,1,5.22-10.31,73.24,73.24,0,0,1,6.83-9.57c.63-.77,1.34-1.48,2-2.21l1-1.09c.35-.35.74-.68,1.1-1,.75-.68,1.47-1.38,2.25-2l2.41-1.87a45.39,45.39,0,0,1,10.8-5.89,11.07,11.07,0,0,1,1.47-.5l1.49-.44,1.49-.44c.51-.13,1.05-.2,1.57-.31,1.06-.17,2.1-.41,3.17-.51l3.21-.17A37.8,37.8,0,0,1,757.47,702a50.56,50.56,0,0,1,10.8,5.64,64.79,64.79,0,0,1,9,7.57,97.94,97.94,0,0,1,14.1,18c2,3.2,3.83,6.49,5.56,9.83s3.27,6.75,4.68,10.22a127.68,127.68,0,0,1,6.79,21.4,84.77,84.77,0,0,1,1.76,11.18A49.52,49.52,0,0,1,810,797.4a50.82,50.82,0,0,1-2.9,11.06,24.35,24.35,0,0,1-6.57,9.58,19.67,19.67,0,0,1-10.55,4.4,54.71,54.71,0,0,1-11-.36c1.82-.14,3.65-.2,5.45-.34a34.37,34.37,0,0,0,5.31-.84,17.4,17.4,0,0,0,8.85-4.94,22.16,22.16,0,0,0,4.77-8.84,46.75,46.75,0,0,0,1.64-10.26,46.21,46.21,0,0,0-.68-10.26,83.88,83.88,0,0,0-2.39-10.24c-1-3.39-2.18-6.73-3.42-10s-2.69-6.55-4.22-9.74a137.89,137.89,0,0,0-10.46-18.38,94.81,94.81,0,0,0-13.27-15.92,60.34,60.34,0,0,0-7.82-6.31,41,41,0,0,0-8.57-4.31,28.21,28.21,0,0,0-9-1.5l-2.24.13c-.75.08-1.48.27-2.22.38-.37.08-.74.12-1.11.22l-1.13.34c-.74.25-1.52.4-2.23.72a35.23,35.23,0,0,0-8.34,4.49,46.08,46.08,0,0,0-7.18,6.61,62.81,62.81,0,0,0-6,8.09,84.36,84.36,0,0,0-4.83,9.07c-5.76,12.59-9,26.56-10.48,40.61A129.1,129.1,0,0,0,699,802a79.85,79.85,0,0,0,1.34,10.41A34.78,34.78,0,0,0,703.5,822a19.38,19.38,0,0,0,6.36,7.34,21.48,21.48,0,0,0,9.43,3.39,36.09,36.09,0,0,0,10.56-.35A51.49,51.49,0,0,0,740.31,829.5Z" transform="translate(-644 -292.61)"/><path class="f" d="M736.71,824.08l1.39-.56c2.76-1.1,5.78.53,6.76,3.65h0c1,3.12-.47,6.54-3.22,7.64l-1.39.56Z" transform="translate(-644 -292.61)"/><path class="f" d="M780.88,827.69l-1.47-.1c-2.92-.2-5.14-3-5-6.34h0c.18-3.3,2.68-5.82,5.6-5.62l1.47.1Z" transform="translate(-644 -292.61)"/><path d="M824.62,332.38S838,298,785,293s-40,40-40,40Z" transform="translate(-644 -292.61)"/><circle class="g" cx="207.73" cy="451.39" r="25.27"/><circle class="f" cx="207.73" cy="451.39" r="14.41"/><rect class="h" x="249.28" y="324.35" width="245.85" height="245.85" rx="16.82"/><path class="b" d="M893.28,676.42V633.78A16.82,16.82,0,0,1,910.1,617h212.21a16.82,16.82,0,0,1,16.82,16.81v42.89Z" transform="translate(-644 -292.61)"/><rect class="e" x="249.28" y="384.06" width="245.85" height="9.83"/><rect class="i" x="285.1" y="305.39" width="16.16" height="35.82" rx="7.04"/><rect class="i" x="324.26" y="305.39" width="16.16" height="35.82" rx="7.04"/><rect class="i" x="363.42" y="305.39" width="16.16" height="35.82" rx="7.04"/><rect class="i" x="402.58" y="305.39" width="16.16" height="35.82" rx="7.04"/><rect class="i" x="441.74" y="305.39" width="16.16" height="35.82" rx="7.04"/><circle class="j" cx="1016.29" cy="770.75" r="69.95" transform="translate(-551.3 1357.85) rotate(-80.78)"/><path class="k" d="M1016.29,705.92a64.84,64.84,0,1,1-64.83,64.83,64.92,64.92,0,0,1,64.83-64.83m0-10.24a75.08,75.08,0,1,0,75.07,75.07,75.07,75.07,0,0,0-75.07-75.07Z" transform="translate(-644 -292.61)"/><line class="l" x1="372.29" y1="432.32" x2="372.29" y2="523.48"/><line class="l" x1="417.63" y1="478.14" x2="326.47" y2="478.14"/></svg>